<?xml version="1.0" standalone="no"?>
<!DOCTYPE svg PUBLIC "-//W3C//DTD SVG 20010904//EN"
 "http://www.w3.org/TR/2001/REC-SVG-20010904/DTD/svg10.dtd">
<svg version="1.0" xmlns="http://www.w3.org/2000/svg"
 width="75.000000pt" height="75.000000pt" viewBox="0 0 75.000000 75.000000"
 preserveAspectRatio="xMidYMid meet">
<metadata>
Created by potrace 1.15, written by Peter Selinger 2001-2017
</metadata>
<g transform="translate(0.000000,75.000000) scale(0.100000,-0.100000)"
fill="#000000" stroke="none">
<path d="M249 714 c-26 -9 -68 -32 -94 -53 -216 -164 -183 -491 63 -613 40
-20 62 -23 152 -23 96 0 110 3 158 28 72 38 133 100 168 173 25 52 28 70 28
149 0 79 -3 97 -28 149 -36 73 -97 136 -168 172 -44 23 -68 28 -143 31 -64 2
-104 -2 -136 -13z m256 -69 c30 -14 55 -30 55 -33 0 -4 -86 -6 -192 -4 -183 3
-190 4 -167 20 82 58 207 65 304 17z m-261 -168 c47 -54 86 -100 86 -102 0
-11 -174 -200 -183 -200 -19 0 -66 88 -77 144 -7 39 -7 72 1 113 12 58 62 152
78 146 5 -2 48 -47 95 -101z m379 66 c13 -21 29 -53 35 -72 15 -44 15 -148 0
-192 -14 -42 -55 -109 -66 -109 -9 0 -182 195 -182 205 0 9 174 205 182 205 4
0 18 -17 31 -37z m-155 -11 c-7 -10 -32 -41 -56 -67 l-43 -49 -54 60 c-30 32
-54 62 -55 67 0 4 50 7 111 7 105 0 110 -1 97 -18z m-39 -267 l53 -60 -56 -3
c-31 -2 -81 -2 -112 0 l-57 3 54 62 c30 35 57 62 60 60 3 -1 30 -29 58 -62z
m106 -145 c-49 -33 -132 -53 -195 -47 -49 4 -160 48 -160 62 0 3 87 5 193 5
l192 0 -30 -20z"/>
</g>
</svg>
