<svg version="1.0" xmlns="http://www.w3.org/2000/svg" width="40" height="40" preserveAspectRatio="xMidYMid meet" style=""><rect id="backgroundrect" width="100%" height="100%" x="0" y="0" fill="none" stroke="none"/>
<metadata>
Created by potrace 1.12, written by Peter Selinger 2001-2015
</metadata>

<g class="currentLayer" style=""><title>Layer 1</title><g transform="translate(0, 700) scale(0.1, -0.1)" fill="#000000" stroke="none" id="svg_1" class="" opacity="1">
<path d="M185.18101501464844,6993.703170776367 c-4.77953577041626,-0.4416674077510834 -11.47088623046875,-0.9937518239021301 -14.90090560913086,-1.3250020742416382 c-4.8357648849487305,-0.3864590525627136 -7.084959983825684,-0.8833348155021667 -10.177600860595703,-2.208336353302002 c-2.3616533279418945,-0.9937518239021301 -6.185280799865723,-1.9875036478042603 -9.446613311767578,-2.484379768371582 c-3.9923179149627686,-0.6072927713394165 -6.297741413116455,-1.2697935104370117 -8.546934127807617,-2.5395870208740234 c-1.6868948936462402,-0.8833348155021667 -4.891995429992676,-2.0427117347717285 -7.141186714172363,-2.484379768371582 c-2.3616533279418945,-0.49687591195106506 -5.285604000091553,-1.6010441780090332 -7.141186714172363,-2.7052135467529297 c-1.6868948936462402,-0.9937518239021301 -4.273467063903809,-2.208336353302002 -5.679213523864746,-2.7052135467529297 c-1.4619755744934082,-0.4416674077510834 -4.329697608947754,-1.8770865201950073 -6.4664306640625,-3.091672420501709 c-2.080503463745117,-1.2697935104370117 -4.104777812957764,-2.2635462284088135 -4.4421563148498535,-2.2635462284088135 c-0.33737897872924805,0 -1.5182054042816162,-0.6625010371208191 -2.5865719318389893,-1.435418963432312 c-1.0683667659759521,-0.7729181051254272 -3.1488707065582275,-2.0427117347717285 -4.723306655883789,-2.815629720687866 c-1.5182054042816162,-0.7729181051254272 -3.8798584938049316,-2.318753957748413 -5.116915225982666,-3.422922372817993 c-1.2932859659194946,-1.104168176651001 -3.2051000595092773,-2.5395870208740234 -4.217237949371338,-3.2020883560180664 c-6.860040664672852,-4.4718828201293945 -9.952679634094238,-6.569803237915039 -11.189737319946289,-7.618764400482178 c-3.9923179149627686,-3.533339262008667 -9.55907154083252,-8.502095222473145 -11.63957405090332,-10.489598274230957 c-1.2932859659194946,-1.214585542678833 -2.5865719318389893,-2.429171085357666 -2.9239511489868164,-2.76042103767395 c-5.791672229766846,-5.300008296966553 -11.864495277404785,-12.366689682006836 -16.75649070739746,-19.488576889038086 c-0.9559071063995361,-1.435418963432312 -2.5303423404693604,-3.478130578994751 -3.430020332336426,-4.527092456817627 c-0.8996773958206177,-1.0489603281021118 -2.0242743492126465,-2.6500041484832764 -2.5303423404693604,-3.588547945022583 c-0.5060685873031616,-0.8833348155021667 -1.5744353532791138,-2.373962640762329 -2.4178824424743652,-3.3125059604644775 c-0.7872176766395569,-0.8833348155021667 -2.1929636001586914,-3.146880626678467 -3.0364108085632324,-4.968759536743164 c-0.8434474468231201,-1.8218780755996704 -2.080503463745117,-3.7541730403900146 -2.6990318298339844,-4.361465930938721 c-0.6747579574584961,-0.5520840883255005 -1.7431244850158691,-2.5947959423065186 -2.3616533279418945,-4.527092456817627 c-0.6747579574584961,-1.9875036478042603 -1.8555843830108643,-4.306257247924805 -2.6428020000457764,-5.2447991371154785 c-0.8434474468231201,-0.9385432600975037 -1.9118142127990723,-3.367713451385498 -2.5303423404693604,-5.355217933654785 c-0.5622982978820801,-2.0427117347717285 -1.4619755744934082,-4.306257247924805 -2.0242743492126465,-5.079174041748047 c-1.8555843830108643,-2.429171085357666 -2.3616533279418945,-3.698964834213257 -3.2051000595092773,-8.060429573059082 c-0.44983869791030884,-2.318753957748413 -1.5182054042816162,-5.5208420753479 -2.4178824424743652,-7.066678524017334 c-1.9680438041687012,-3.422922372817993 -2.1929636001586914,-4.306257247924805 -2.9239511489868164,-11.096892356872559 c-0.39360883831977844,-3.643756151199341 -1.1245965957641602,-6.680220603942871 -2.2491931915283203,-9.495850563049316 c-2.2491931915283203,-5.5208420753479 -2.8114917278289795,-11.980226516723633 -2.8114917278289795,-33.842769622802734 c0,-20.316696166992188 0.5622982978820801,-27.659423828125 2.5303423404693604,-32.73859405517578 c0.7309877872467041,-1.9875036478042603 1.8555843830108643,-6.956261157989502 2.4741127490997314,-10.986478805541992 c0.8434474468231201,-6.128134250640869 1.4057458639144897,-8.00522232055664 2.8114917278289795,-10.489598274230957 c1.1245965957641602,-1.9875036478042603 2.080503463745117,-4.692715167999268 2.5865719318389893,-7.6739702224731445 c0.6185281872749329,-3.367713451385498 1.2932859659194946,-5.2447991371154785 2.4741127490997314,-6.845844745635986 c0.8996773958206177,-1.2697935104370117 2.080503463745117,-3.864588975906372 2.5865719318389893,-5.796884536743164 c0.5060685873031616,-1.9875036478042603 1.6868948936462402,-4.4718828201293945 2.755261182785034,-5.852092742919922 c1.0683667659759521,-1.3250020742416382 2.1929636001586914,-3.588547945022583 2.5303423404693604,-5.0239667892456055 c0.39360883831977844,-1.4906277656555176 1.4619755744934082,-3.478130578994751 2.5303423404693604,-4.637507915496826 c1.0683667659759521,-1.104168176651001 2.3054230213165283,-3.2572972774505615 2.8114917278289795,-4.747925281524658 c0.5060685873031616,-1.5458362102508545 1.5744353532791138,-3.367713451385498 2.3616533279418945,-4.085423469543457 c0.7872176766395569,-0.717709481716156 2.0242743492126465,-2.429171085357666 2.755261182785034,-3.809382200241089 c0.7309877872467041,-1.380210518836975 1.8555843830108643,-2.981255531311035 2.5303423404693604,-3.588547945022583 c0.6747579574584961,-0.6072927713394165 1.8555843830108643,-2.208336353302002 2.5865719318389893,-3.588547945022583 c0.7872176766395569,-1.380210518836975 2.5303423404693604,-3.864588975906372 3.9360876083374023,-5.5208420753479 c5.060684680938721,-6.072926044464111 17.993545532226562,-19.267744064331055 23.054229736328125,-23.573999404907227 c1.5182054042816162,-1.2697935104370117 3.8798584938049316,-3.3125059604644775 5.285604000091553,-4.4718828201293945 c2.2491931915283203,-1.932294487953186 4.217237949371338,-3.2572972774505615 10.62744140625,-7.453137397766113 c1.0121371746063232,-0.6625010371208191 2.9239511489868164,-2.1531286239624023 4.273467063903809,-3.2572972774505615 c1.2932859659194946,-1.1593769788742065 3.3737897872924805,-2.484379768371582 4.554615497589111,-2.981255531311035 c1.1808266639709473,-0.49687591195106506 3.0926403999328613,-1.6010441780090332 4.273467063903809,-2.484379768371582 c1.1245965957641602,-0.8833348155021667 3.0364108085632324,-1.9875036478042603 4.273467063903809,-2.373962640762329 c1.2370563745498657,-0.4416674077510834 3.542479991912842,-1.6562529802322388 5.060684680938721,-2.7052135467529297 c1.5744353532791138,-1.0489603281021118 3.9360876083374023,-2.1531286239624023 5.285604000091553,-2.484379768371582 c1.2932859659194946,-0.33125051856040955 3.7673990726470947,-1.4906277656555176 5.398063659667969,-2.5395870208740234 c1.7993547916412354,-1.104168176651001 4.610846042633057,-2.2635462284088135 6.972497940063477,-2.76042103767395 c2.1929636001586914,-0.49687591195106506 5.285604000091553,-1.6562529802322388 6.916268348693848,-2.5395870208740234 c2.0242743492126465,-1.1593769788742065 4.77953577041626,-1.9875036478042603 8.771854400634766,-2.7052135467529297 c3.2051000595092773,-0.6072927713394165 7.366106033325195,-1.7114611864089966 9.221692085266113,-2.5395870208740234 c2.3616533279418945,-1.0489603281021118 4.948225498199463,-1.6562529802322388 8.715622901916504,-1.9875036478042603 c30.982633590698242,-2.926046371459961 35.19987487792969,-3.091672420501709 45.82731246948242,-2.1531286239624023 c3.0926403999328613,0.27604204416275024 10.458747863769531,0.8833348155021667 16.30665397644043,1.380210518836975 c12.426791191101074,0.9385432600975037 12.764171600341797,1.0489603281021118 17.993545532226562,3.091672420501709 c2.1929636001586914,0.8281264901161194 6.353970050811768,1.932294487953186 9.277920722961426,2.429171085357666 c3.9360876083374023,0.6625010371208191 6.072821617126465,1.3250020742416382 8.04086685180664,2.5947959423065186 c1.5182054042816162,0.9385432600975037 4.329697608947754,2.0427117347717285 6.410200119018555,2.484379768371582 c2.1367335319519043,0.3864590525627136 4.948225498199463,1.4906277656555176 6.4664306640625,2.429171085357666 c1.4619755744934082,0.9385432600975037 4.161006927490234,2.1531286239624023 6.016592025756836,2.7052135467529297 c1.7993547916412354,0.5520840883255005 4.161006927490234,1.6010441780090332 5.229373931884766,2.373962640762329 c1.0121371746063232,0.7729181051254272 3.1488707065582275,1.932294487953186 4.667076587677002,2.5947959423065186 c1.5744353532791138,0.6625010371208191 3.430020332336426,1.7666696310043335 4.217237949371338,2.484379768371582 c0.7872176766395569,0.717709481716156 2.8114917278289795,1.932294487953186 4.498386383056641,2.6500041484832764 c1.6868948936462402,0.7729181051254272 3.5987095832824707,1.8770865201950073 4.161006927490234,2.5395870208740234 c0.6185281872749329,0.6625010371208191 2.0242743492126465,1.7114611864089966 3.0926403999328613,2.373962640762329 c1.1245965957641602,0.6625010371208191 2.8114917278289795,1.8218780755996704 3.7111687660217285,2.6500041484832764 c0.9559071063995361,0.8281264901161194 2.5865719318389893,2.0979206562042236 3.7673990726470947,2.815629720687866 c9.334153175354004,5.96251106262207 27.946226119995117,23.739620208740234 33.11936569213867,31.689640045166016 c0.7872176766395569,1.214585542678833 1.8555843830108643,2.5395870208740234 2.3616533279418945,2.981255531311035 c0.5622982978820801,0.3864590525627136 1.6306649446487427,1.932294487953186 2.4741127490997314,3.422922372817993 c0.7872176766395569,1.4906277656555176 2.080503463745117,3.091672420501709 2.8114917278289795,3.588547945022583 c0.7872176766395569,0.4416674077510834 1.8555843830108643,1.932294487953186 2.4741127490997314,3.2020883560180664 c0.5622982978820801,1.2697935104370117 1.7993547916412354,3.3125059604644775 2.755261182785034,4.4718828201293945 c0.8996773958206177,1.1593769788742065 1.9680438041687012,3.0364630222320557 2.3616533279418945,4.195841312408447 c0.33737897872924805,1.214585542678833 1.4619755744934082,3.091672420501709 2.4741127490997314,4.251047611236572 c0.9559071063995361,1.1593769788742065 2.1929636001586914,3.422922372817993 2.6990318298339844,5.079174041748047 c0.5060685873031616,1.6562529802322388 1.6306649446487427,3.9197981357574463 2.5303423404693604,5.0239667892456055 c0.9559071063995361,1.1593769788742065 2.080503463745117,3.533339262008667 2.5865719318389893,5.5208420753479 c0.5060685873031616,1.932294487953186 1.7993547916412354,4.968759536743164 2.8677215576171875,6.735426902770996 c1.4057458639144897,2.208336353302002 2.1367335319519043,4.251047611236572 2.5303423404693604,6.901054859161377 c0.33737897872924805,2.2635462284088135 1.2932859659194946,5.189591884613037 2.5303423404693604,7.563553810119629 c1.5744353532791138,3.2020883560180664 2.080503463745117,5.0239667892456055 2.755261182785034,10.489598274230957 c1.0121371746063232,8.226053237915039 1.1808266639709473,8.888556480407715 2.9239511489868164,14.354191780090332 c1.2370563745498657,3.9197981357574463 1.4619755744934082,5.90730094909668 1.9118142127990723,17.11461067199707 c0.44983869791030884,12.75314712524414 -0.056229837238788605,28.818798065185547 -1.1245965957641602,34.22922134399414 c-0.28114914894104004,1.5458362102508545 -0.9559071063995361,3.809382200241089 -1.4057458639144897,5.134383201599121 c-0.7309877872467041,1.9875036478042603 -1.5182054042816162,6.625011920928955 -2.8677215576171875,16.452106475830078 c-0.16868948936462402,1.214585542678833 -1.0683667659759521,3.809382200241089 -2.0242743492126465,5.796884536743164 c-0.9559071063995361,1.932294487953186 -2.080503463745117,5.410427093505859 -2.5303423404693604,7.6739702224731445 c-0.5060685873031616,2.484379768371582 -1.4619755744934082,5.189591884613037 -2.4178824424743652,6.680220603942871 c-1.5744353532791138,2.5395870208740234 -2.2491931915283203,4.195841312408447 -3.3737897872924805,8.557305335998535 c-0.33737897872924805,1.2697935104370117 -1.4057458639144897,3.2020883560180664 -2.3054230213165283,4.361465930938721 c-0.9559071063995361,1.1593769788742065 -2.080503463745117,3.478130578994751 -2.5865719318389893,5.079174041748047 c-0.5060685873031616,1.6562529802322388 -1.6306649446487427,3.809382200241089 -2.4741127490997314,4.803133010864258 c-0.8996773958206177,0.9385432600975037 -2.1929636001586914,3.091672420501709 -2.9801812171936035,4.747925281524658 c-0.7309877872467041,1.6562529802322388 -1.7993547916412354,3.422922372817993 -2.3616533279418945,3.864588975906372 c-0.5622982978820801,0.4416674077510834 -1.4619755744934082,1.932294487953186 -2.080503463745117,3.2572972774505615 c-0.5622982978820801,1.380210518836975 -2.1929636001586914,3.643756151199341 -3.5987095832824707,5.134383201599121 c-1.3495159149169922,1.435418963432312 -2.4741127490997314,2.926046371459961 -2.4741127490997314,3.367713451385498 c0,0.3864590525627136 -0.6747579574584961,1.3250020742416382 -1.4619755744934082,2.0979206562042236 c-0.8434474468231201,0.717709481716156 -2.1367335319519043,2.318753957748413 -2.9239511489868164,3.533339262008667 c-3.3737897872924805,5.189591884613037 -11.695804595947266,14.133357048034668 -19.905359268188477,21.310453414916992 c-7.815945625305176,6.845844745635986 -10.8523588180542,9.330222129821777 -13.101551055908203,10.71043586730957 c-0.8996773958206177,0.6072927713394165 -2.755261182785034,1.9875036478042603 -4.048548698425293,3.146880626678467 c-1.3495159149169922,1.1593769788742065 -2.6428020000457764,2.0979206562042236 -2.9239511489868164,2.0979206562042236 c-0.28114914894104004,0 -1.6868948936462402,0.9937518239021301 -3.0926403999328613,2.1531286239624023 c-1.4057458639144897,1.1593769788742065 -3.7673990726470947,2.5395870208740234 -5.285604000091553,3.0364630222320557 c-1.5182054042816162,0.49687591195106506 -3.3737897872924805,1.5458362102508545 -4.104777812957764,2.373962640762329 c-0.7309877872467041,0.7729181051254272 -2.9801812171936035,2.0979206562042236 -4.891995429992676,2.981255531311035 c-1.9680438041687012,0.8833348155021667 -4.217237949371338,2.0979206562042236 -5.004455089569092,2.7052135467529297 c-0.7872176766395569,0.6072927713394165 -3.1488707065582275,1.6010441780090332 -5.229373931884766,2.208336353302002 c-2.080503463745117,0.6072927713394165 -4.723306655883789,1.8770865201950073 -5.9041314125061035,2.76042103767395 c-1.1808266639709473,0.9385432600975037 -2.1929636001586914,1.6562529802322388 -2.2491931915283203,1.6562529802322388 c-2.080503463745117,0 -7.591028213500977,1.6562529802322388 -10.177600860595703,3.091672420501709 c-2.6990318298339844,1.435418963432312 -4.77953577041626,2.0427117347717285 -9.221692085266113,2.7052135467529297 c-3.5987095832824707,0.5520840883255005 -7.197419166564941,1.4906277656555176 -9.671529769897461,2.5395870208740234 c-4.104777812957764,1.7666696310043335 -4.667076587677002,1.8218780755996704 -22.098323822021484,3.2572972774505615 c-12.0894136428833,0.9937518239021301 -29.01459503173828,1.104168176651001 -38.51743698120117,0.27604204416275024 zm34.80626678466797,-26.77608871459961 c2.9239511489868164,-0.33125051856040955 7.591028213500977,-1.2697935104370117 10.402519226074219,-2.1531286239624023 c2.8114917278289795,-0.8833348155021667 7.647256851196289,-1.8770865201950073 10.73989486694336,-2.208336353302002 c4.385927200317383,-0.49687591195106506 6.353970050811768,-0.9937518239021301 8.996772766113281,-2.318753957748413 c1.8555843830108643,-0.9385432600975037 5.735443115234375,-2.318753957748413 8.546934127807617,-2.981255531311035 c3.1488707065582275,-0.7729181051254272 5.960362434387207,-1.8770865201950073 7.141186714172363,-2.76042103767395 c1.0121371746063232,-0.7729181051254272 3.5987095832824707,-1.8770865201950073 5.679213523864746,-2.429171085357666 c2.1929636001586914,-0.6072927713394165 4.385927200317383,-1.6562529802322388 5.285604000091553,-2.484379768371582 c0.8434474468231201,-0.7729181051254272 3.1488707065582275,-2.0427117347717285 5.116915225982666,-2.815629720687866 c1.9680438041687012,-0.7729181051254272 4.217237949371338,-1.9875036478042603 5.004455089569092,-2.7052135467529297 c0.8434474468231201,-0.717709481716156 2.3054230213165283,-1.7114611864089966 3.2613298892974854,-2.208336353302002 c1.0121371746063232,-0.49687591195106506 2.6990318298339844,-1.6562529802322388 3.7111687660217285,-2.5395870208740234 c1.0683667659759521,-0.8833348155021667 3.1488707065582275,-2.1531286239624023 4.667076587677002,-2.76042103767395 c3.3737897872924805,-1.435418963432312 4.161006927490234,-2.373962640762329 4.161006927490234,-5.079174041748047 c0,-2.5395870208740234 -1.4057458639144897,-3.478130578994751 -4.4421563148498535,-2.926046371459961 c-1.1245965957641602,0.2208337038755417 -44.98386764526367,0.33125051856040955 -97.50255584716797,0.33125051856040955 c-64.15824127197266,-0.05520842596888542 -95.87185668945312,0.16562525928020477 -96.60285186767578,0.49687591195106506 c-1.2932859659194946,0.717709481716156 -1.4619755744934082,3.643756151199341 -0.22491934895515442,5.355217933654785 c0.44983869791030884,0.6072927713394165 1.9680438041687012,1.5458362102508545 3.3737897872924805,2.0427117347717285 c1.4057458639144897,0.4416674077510834 3.542479991912842,1.5458362102508545 4.667076587677002,2.429171085357666 c1.1245965957641602,0.8833348155021667 3.0926403999328613,2.0979206562042236 4.329697608947754,2.76042103767395 c1.2370563745498657,0.6072927713394165 2.8677215576171875,1.7666696310043335 3.5987095832824707,2.5395870208740234 c0.7309877872467041,0.7729181051254272 2.6428020000457764,1.8218780755996704 4.217237949371338,2.318753957748413 c1.5744353532791138,0.49687591195106506 3.7673990726470947,1.7114611864089966 4.8357648849487305,2.7052135467529297 c1.2370563745498657,1.0489603281021118 3.3737897872924805,2.0979206562042236 5.622983455657959,2.7052135467529297 c1.9680438041687012,0.5520840883255005 4.554615497589111,1.6010441780090332 5.791672229766846,2.373962640762329 c1.1808266639709473,0.717709481716156 4.273467063903809,1.8770865201950073 6.747579574584961,2.484379768371582 c2.5303423404693604,0.6072927713394165 6.129051685333252,1.932294487953186 7.984635829925537,2.981255531311035 c2.8677215576171875,1.5458362102508545 4.273467063903809,1.8770865201950073 9.334153175354004,2.429171085357666 c3.542479991912842,0.33125051856040955 7.703487396240234,1.1593769788742065 10.121369361877441,1.9875036478042603 c2.3054230213165283,0.7729181051254272 6.578889846801758,1.7666696310043335 9.50284194946289,2.1531286239624023 c6.4664306640625,0.8281264901161194 28.620990753173828,0.9937518239021301 35.93086624145508,0.27604204416275024 zm-129.159912109375,-51.3990478515625 c0.5622982978820801,-0.27604204416275024 1.4619755744934082,-1.214585542678833 1.9680438041687012,-2.0427117347717285 c0.5060685873031616,-0.8281264901161194 1.7431244850158691,-2.373962640762329 2.6990318298339844,-3.478130578994751 c0.8996773958206177,-1.104168176651001 3.3175599575042725,-3.9197981357574463 5.341832637786865,-6.293761253356934 c2.0242743492126465,-2.373962640762329 4.891995429992676,-5.68646764755249 6.353970050811768,-7.397929668426514 c1.4619755744934082,-1.7114611864089966 3.7673990726470947,-4.306257247924805 5.060684680938721,-5.796884536743164 c1.2932859659194946,-1.4906277656555176 3.4862489700317383,-3.9197981357574463 4.891995429992676,-5.410427093505859 c2.5303423404693604,-2.6500041484832764 6.241512298583984,-6.625011920928955 10.402519226074219,-11.152101516723633 c1.2370563745498657,-1.3250020742416382 3.542479991912842,-3.9750072956085205 5.060684680938721,-5.852092742919922 c1.5744353532791138,-1.8770865201950073 4.948225498199463,-5.741675853729248 7.591028213500977,-8.66772174835205 c2.6428020000457764,-2.870837926864624 5.1731438636779785,-5.852092742919922 5.679213523864746,-6.569803237915039 c0.5060685873031616,-0.7729181051254272 1.7993547916412354,-2.318753957748413 2.8677215576171875,-3.422922372817993 c2.1367335319519043,-2.1531286239624023 6.129051685333252,-6.404176712036133 10.008910179138184,-10.600016593933105 c3.654939889907837,-3.9750072956085205 12.370561599731445,-13.912522315979004 15.74435043334961,-17.99794578552246 c1.6868948936462402,-2.0427117347717285 4.104777812957764,-4.858342170715332 5.398063659667969,-6.238551616668701 c3.7673990726470947,-4.140631198883057 3.7111687660217285,-5.189591884613037 -0.44983869791030884,-9.882308959960938 c-1.3495159149169922,-1.4906277656555176 -3.654939889907837,-4.251047611236572 -5.229373931884766,-6.183344841003418 c-1.5182054042816162,-1.8770865201950073 -3.8798584938049316,-4.582298755645752 -5.1731438636779785,-5.96251106262207 c-1.2932859659194946,-1.435418963432312 -3.3737897872924805,-3.698964834213257 -4.610846042633057,-5.079174041748047 c-1.2370563745498657,-1.380210518836975 -3.4862489700317383,-3.809382200241089 -4.948225498199463,-5.355217933654785 c-1.4619755744934082,-1.6010441780090332 -3.9360876083374023,-4.306257247924805 -5.510522365570068,-6.01771879196167 c-1.5182054042816162,-1.7114611864089966 -3.8236284255981445,-4.140631198883057 -5.060684680938721,-5.410427093505859 c-3.5987095832824707,-3.7541730403900146 -6.072821617126465,-6.514594554901123 -7.872175216674805,-8.943765640258789 c-3.430020332336426,-4.527092456817627 -14.50729751586914,-17.05940055847168 -21.36733055114746,-24.23649787902832 c-6.4664306640625,-6.680220603942871 -10.73989486694336,-11.538561820983887 -16.644027709960938,-18.77086067199707 c-2.6990318298339844,-3.3125059604644775 -5.960362434387207,-7.177095890045166 -7.25364875793457,-8.557305335998535 c-1.2370563745498657,-1.380210518836975 -2.9801812171936035,-3.3125059604644775 -3.8236284255981445,-4.306257247924805 c-1.1808266639709473,-1.380210518836975 -2.080503463745117,-1.8770865201950073 -4.161006927490234,-2.0979206562042236 c-2.8677215576171875,-0.3864590525627136 -2.1929636001586914,-0.8833348155021667 -8.097097396850586,5.576050758361816 c-5.4542951583862305,5.96251106262207 -6.972497940063477,7.894805431365967 -7.815945625305176,9.827096939086914 c-0.44983869791030884,1.104168176651001 -1.5744353532791138,2.815629720687866 -2.4741127490997314,3.809382200241089 c-0.8434474468231201,0.9937518239021301 -2.1367335319519043,2.926046371459961 -2.8677215576171875,4.306257247924805 c-0.6747579574584961,1.380210518836975 -1.8555843830108643,3.091672420501709 -2.5865719318389893,3.864588975906372 c-0.7309877872467041,0.7729181051254272 -1.8555843830108643,2.870837926864624 -2.4178824424743652,4.637507915496826 c-0.6185281872749329,1.7114611864089966 -1.7993547916412354,3.9197981357574463 -2.5865719318389893,4.803133010864258 c-0.7309877872467041,0.9385432600975037 -2.0242743492126465,3.7541730403900146 -2.8114917278289795,6.293761253356934 c-0.8434474468231201,2.5947959423065186 -1.6868948936462402,4.803133010864258 -2.0242743492126465,4.968759536743164 c-1.1245965957641602,0.717709481716156 -2.755261182785034,4.747925281524658 -3.3175599575042725,8.336472511291504 c-0.33737897872924805,2.0979206562042236 -1.4619755744934082,5.68646764755249 -2.5303423404693604,7.950014591217041 c-1.7993547916412354,3.809382200241089 -2.0242743492126465,4.913548469543457 -2.8114917278289795,13.360441207885742 c-0.44983869791030884,5.079174041748047 -1.2370563745498657,10.931264877319336 -1.7431244850158691,12.973982810974121 c-0.5060685873031616,2.2635462284088135 -0.9559071063995361,7.78438663482666 -1.1245965957641602,13.967733383178711 c-0.28114914894104004,8.943765640258789 -0.16868948936462402,10.931264877319336 0.8434474468231201,16.01044464111328 c0.6747579574584961,3.2020883560180664 1.5744353532791138,9.661474227905273 2.0242743492126465,14.354191780090332 c0.7309877872467041,7.618764400482178 1.0121371746063232,8.888556480407715 2.755261182785034,12.477103233337402 c1.0683667659759521,2.208336353302002 2.1929636001586914,5.741675853729248 2.5865719318389893,8.00522232055664 c0.39360883831977844,2.2635462284088135 1.2932859659194946,5.189591884613037 2.080503463745117,6.569803237915039 c2.6428020000457764,4.582298755645752 3.3737897872924805,6.348969459533691 3.7673990726470947,8.99897289276123 c0.28114914894104004,1.8770865201950073 0.9559071063995361,3.2572972774505615 2.2491931915283203,4.692715167999268 c1.0121371746063232,1.104168176651001 2.3054230213165283,3.367713451385498 2.8677215576171875,4.968759536743164 c0.5060685873031616,1.6562529802322388 1.6868948936462402,3.7541730403900146 2.5303423404693604,4.692715167999268 c0.8434474468231201,0.9937518239021301 1.9680438041687012,2.6500041484832764 2.5303423404693604,3.698964834213257 c0.5622982978820801,1.0489603281021118 1.7431244850158691,2.76042103767395 2.6428020000457764,3.809382200241089 c0.9559071063995361,1.0489603281021118 2.1367335319519043,2.870837926864624 2.6990318298339844,4.140631198883057 c0.5622982978820801,1.2697935104370117 1.6306649446487427,2.870837926864624 2.4741127490997314,3.588547945022583 c0.7872176766395569,0.7729181051254272 2.1367335319519043,2.429171085357666 2.9239511489868164,3.7541730403900146 c0.7309877872467041,1.3250020742416382 1.6306649446487427,2.373962640762329 1.9118142127990723,2.373962640762329 c0.33737897872924805,0 1.4619755744934082,1.214585542678833 2.5303423404693604,2.7052135467529297 c1.1245965957641602,1.5458362102508545 2.4741127490997314,2.870837926864624 2.9801812171936035,3.0364630222320557 c1.2370563745498657,0.33125051856040955 4.554615497589111,-0.16562525928020477 5.847902297973633,-0.8281264901161194 zm231.72317504882812,0.2208337038755417 c0.22491934895515442,-0.11041685193777084 0.8996773958206177,-1.214585542678833 1.5182054042816162,-2.373962640762329 c0.6185281872749329,-1.1593769788742065 1.6868948936462402,-2.5395870208740234 2.4178824424743652,-3.091672420501709 c1.2932859659194946,-0.9937518239021301 3.3737897872924805,-3.864588975906372 7.5347981452941895,-10.379183769226074 c1.0121371746063232,-1.5458362102508545 2.5865719318389893,-3.422922372817993 3.4862489700317383,-4.195841312408447 c0.8996773958206177,-0.7729181051254272 2.1929636001586914,-2.76042103767395 2.8114917278289795,-4.4718828201293945 c0.6747579574584961,-1.7114611864089966 1.7993547916412354,-3.643756151199341 2.5865719318389893,-4.361465930938721 c0.7309877872467041,-0.6625010371208191 1.9118142127990723,-2.815629720687866 2.5303423404693604,-4.747925281524658 c0.6747579574584961,-1.8770865201950073 1.5744353532791138,-3.7541730403900146 2.0242743492126465,-4.140631198883057 c1.2932859659194946,-1.0489603281021118 2.4178824424743652,-3.478130578994751 3.0926403999328613,-6.680220603942871 c0.33737897872924805,-1.6010441780090332 1.4619755744934082,-4.361465930938721 2.5865719318389893,-6.128134250640869 c1.3495159149169922,-2.208336353302002 2.1367335319519043,-4.361465930938721 2.5303423404693604,-6.901054859161377 c0.7309877872467041,-4.637507915496826 1.6306649446487427,-7.729177951812744 3.4862489700317383,-12.090645790100098 c1.2370563745498657,-2.870837926864624 1.5744353532791138,-4.747925281524658 2.0242743492126465,-12.145852088928223 c0.33737897872924805,-4.803133010864258 0.8434474468231201,-10.71043586730957 1.1245965957641602,-13.139606475830078 c0.7872176766395569,-6.293761253356934 0.6747579574584961,-11.869810104370117 -0.5622982978820801,-28.211503982543945 c-1.1808266639709473,-15.789610862731934 -1.5182054042816162,-17.832317352294922 -3.654939889907837,-22.359413146972656 c-1.2370563745498657,-2.76042103767395 -1.7431244850158691,-4.637507915496826 -2.8114917278289795,-11.31772518157959 c-0.16868948936462402,-0.9937518239021301 -1.0121371746063232,-2.6500041484832764 -1.9118142127990723,-3.7541730403900146 c-0.9559071063995361,-1.1593769788742065 -1.9680438041687012,-3.533339262008667 -2.5303423404693604,-5.68646764755249 c-0.5060685873031616,-2.0979206562042236 -1.8555843830108643,-5.189591884613037 -2.9239511489868164,-6.901054859161377 c-1.0683667659759521,-1.7114611864089966 -2.3054230213165283,-4.140631198883057 -2.755261182785034,-5.410427093505859 c-0.44983869791030884,-1.2697935104370117 -1.5744353532791138,-3.2020883560180664 -2.4178824424743652,-4.306257247924805 c-0.8996773958206177,-1.1593769788742065 -2.0242743492126465,-3.146880626678467 -2.5865719318389893,-4.527092456817627 c-0.5622982978820801,-1.380210518836975 -1.7993547916412354,-3.367713451385498 -2.8677215576171875,-4.416672706604004 c-1.0121371746063232,-1.0489603281021118 -2.4178824424743652,-3.0364630222320557 -3.0926403999328613,-4.416672706604004 c-0.7309877872467041,-1.380210518836975 -2.1367335319519043,-3.422922372817993 -3.1488707065582275,-4.582298755645752 c-1.0683667659759521,-1.104168176651001 -1.9118142127990723,-2.2635462284088135 -1.9118142127990723,-2.5947959423065186 c0,-0.27604204416275024 -1.0683667659759521,-1.6010441780090332 -2.3616533279418945,-2.981255531311035 c-1.3495159149169922,-1.3250020742416382 -2.9801812171936035,-3.146880626678467 -3.654939889907837,-4.030214786529541 c-1.0683667659759521,-1.380210518836975 -1.5182054042816162,-1.5458362102508545 -4.385927200317383,-1.5458362102508545 c-2.755261182785034,0 -3.3737897872924805,0.16562525928020477 -4.161006927490234,1.3250020742416382 c-0.5060685873031616,0.717709481716156 -1.9680438041687012,2.484379768371582 -3.2613298892974854,3.864588975906372 c-2.4178824424743652,2.5947959423065186 -5.4542951583862305,5.96251106262207 -9.840221405029297,10.820854187011719 c-1.3495159149169922,1.5458362102508545 -3.0926403999328613,3.643756151199341 -3.9360876083374023,4.692715167999268 c-2.4741127490997314,3.3125059604644775 -11.63957405090332,13.691689491271973 -18.61207389831543,21.14482307434082 c-4.891995429992676,5.189591884613037 -11.414655685424805,12.477103233337402 -14.56352710723877,16.176069259643555 c-7.197419166564941,8.446889877319336 -10.233830451965332,11.980226516723633 -15.013362884521484,17.280237197875977 c-2.9239511489868164,3.2020883560180664 -6.185280799865723,6.79063606262207 -7.309879779815674,7.894805431365967 c-3.0926403999328613,3.2020883560180664 -6.578889846801758,7.011470794677734 -9.50284194946289,10.489598274230957 c-1.4619755744934082,1.7114611864089966 -3.7111687660217285,4.361465930938721 -5.060684680938721,5.90730094909668 c-1.2932859659194946,1.4906277656555176 -2.755261182785034,3.643756151199341 -3.2051000595092773,4.692715167999268 c-0.7872176766395569,1.7666696310043335 -0.7872176766395569,2.208336353302002 0,4.030214786529541 c0.44983869791030884,1.104168176651001 1.9680438041687012,3.2572972774505615 3.3737897872924805,4.803133010864258 c6.016592025756836,6.79063606262207 7.422337532043457,8.281262397766113 9.165461540222168,10.103141784667969 c1.0121371746063232,1.0489603281021118 2.3616533279418945,2.7052135467529297 3.0364108085632324,3.698964834213257 c0.6747579574584961,0.9385432600975037 1.7431244850158691,2.0427117347717285 2.3616533279418945,2.484379768371582 c0.5622982978820801,0.4416674077510834 1.4619755744934082,1.2697935104370117 1.9680438041687012,1.8770865201950073 c1.0121371746063232,1.2697935104370117 5.004455089569092,5.576050758361816 7.928409099578857,8.61251449584961 c1.0683667659759521,1.104168176651001 2.5865719318389893,2.76042103767395 3.3737897872924805,3.7541730403900146 c0.7872176766395569,0.9937518239021301 3.3175599575042725,3.9750072956085205 5.622983455657959,6.625011920928955 c2.3616533279418945,2.6500041484832764 4.8357648849487305,5.631259441375732 5.510522365570068,6.569803237915039 c0.6747579574584961,0.9937518239021301 2.0242743492126465,2.6500041484832764 3.0364108085632324,3.698964834213257 c1.0121371746063232,1.0489603281021118 3.0364108085632324,3.2572972774505615 4.554615497589111,4.858342170715332 c1.4619755744934082,1.6562529802322388 4.610846042633057,4.968759536743164 6.916268348693848,7.397929668426514 c2.3616533279418945,2.429171085357666 4.948225498199463,5.300008296966553 5.735443115234375,6.348969459533691 c0.8434474468231201,1.0489603281021118 2.3054230213165283,2.7052135467529297 3.2051000595092773,3.643756151199341 c0.9559071063995361,0.9385432600975037 3.0926403999328613,3.367713451385498 4.77953577041626,5.410427093505859 c5.341832637786865,6.459385395050049 12.989090919494629,15.127107620239258 15.800582885742188,17.942737579345703 c1.0683667659759521,1.104168176651001 2.4741127490997314,2.815629720687866 3.0926403999328613,3.809382200241089 c0.6185281872749329,1.0489603281021118 1.7431244850158691,1.9875036478042603 2.755261182785034,2.2635462284088135 c1.5182054042816162,0.4416674077510834 5.004455089569092,0.27604204416275024 6.072821617126465,-0.33125051856040955 zm-61.852813720703125,-15.734404563903809 c1.6306649446487427,-0.8281264901161194 1.1808266639709473,-3.422922372817993 -0.8434474468231201,-5.2447991371154785 c-1.0121371746063232,-0.8281264901161194 -2.755261182785034,-2.7052135467529297 -3.7673990726470947,-4.030214786529541 c-1.0683667659759521,-1.380210518836975 -2.8677215576171875,-3.533339262008667 -3.9360876083374023,-4.747925281524658 c-1.1245965957641602,-1.2697935104370117 -3.2613298892974854,-3.809382200241089 -4.8357648849487305,-5.741675853729248 c-1.5182054042816162,-1.8770865201950073 -3.8798584938049316,-4.582298755645752 -5.229373931884766,-5.96251106262207 c-1.2932859659194946,-1.435418963432312 -3.3737897872924805,-3.698964834213257 -4.667076587677002,-5.079174041748047 c-1.2370563745498657,-1.380210518836975 -4.498386383056641,-4.803133010864258 -7.141186714172363,-7.563553810119629 c-2.6990318298339844,-2.815629720687866 -6.297741413116455,-6.79063606262207 -7.984635829925537,-8.833345413208008 c-1.6868948936462402,-1.9875036478042603 -3.9923179149627686,-4.692715167999268 -5.116915225982666,-5.90730094909668 c-1.0683667659759521,-1.2697935104370117 -2.755261182785034,-3.2572972774505615 -3.654939889907837,-4.4718828201293945 c-0.8996773958206177,-1.214585542678833 -2.0242743492126465,-2.5395870208740234 -2.5303423404693604,-2.870837926864624 c-0.5060685873031616,-0.3864590525627136 -1.6306649446487427,-1.8218780755996704 -2.4178824424743652,-3.146880626678467 c-1.4057458639144897,-2.373962640762329 -3.542479991912842,-3.643756151199341 -6.016592025756836,-3.643756151199341 c-1.6868948936462402,0 -3.8236284255981445,1.214585542678833 -4.217237949371338,2.373962640762329 c-0.22491934895515442,0.6072927713394165 -1.2932859659194946,2.1531286239624023 -2.4741127490997314,3.367713451385498 c-3.430020332336426,3.643756151199341 -7.928409099578857,8.7781400680542 -10.964818954467773,12.477103233337402 c-6.353970050811768,7.78438663482666 -16.981409072875977,19.59899139404297 -20.355201721191406,22.63545036315918 c-2.080503463745117,1.8770865201950073 -7.703487396240234,8.226053237915039 -8.37824535369873,9.495850563049316 c-0.28114914894104004,0.49687591195106506 -3.2051000595092773,3.809382200241089 -6.522659778594971,7.342720985412598 c-3.3737897872924805,3.533339262008667 -6.072821617126465,6.901054859161377 -6.072821617126465,7.508346080780029 c0,2.6500041484832764 -0.6747579574584961,2.6500041484832764 57.63559341430664,2.6500041484832764 c29.97049903869629,0.05520842596888542 54.54293441772461,0.16562525928020477 54.71162796020508,0.27604204416275024 c0.33737897872924805,0.33125051856040955 3.4862489700317383,-0.2208337038755417 4.77953577041626,-0.8833348155021667 zm-54.20555877685547,-113.89498901367188 c0.39360883831977844,-0.16562525928020477 1.3495159149169922,-1.380210518836975 2.1367335319519043,-2.6500041484832764 c0.8434474468231201,-1.2697935104370117 2.5303423404693604,-3.533339262008667 3.7673990726470947,-5.0239667892456055 c7.647256851196289,-8.99897289276123 9.671529769897461,-11.262518882751465 15.125825881958008,-17.05940055847168 c9.221692085266113,-9.827096939086914 18.668306350708008,-20.4271183013916 25.41588020324707,-28.59796142578125 c1.8555843830108643,-2.2635462284088135 4.554615497589111,-5.2447991371154785 6.072821617126465,-6.625011920928955 c1.5182054042816162,-1.435418963432312 2.6428020000457764,-2.981255531311035 2.6428020000457764,-3.643756151199341 c0,-1.435418963432312 -1.4057458639144897,-2.926046371459961 -2.6990318298339844,-2.926046371459961 c-0.5060685873031616,0 -25.978181838989258,0 -56.56721496582031,0 c-49.20109939575195,0 -55.7237663269043,0.05520842596888542 -56.90458679199219,0.8281264901161194 c-2.080503463745117,1.3250020742416382 -1.6306649446487427,2.76042103767395 2.1929636001586914,6.845844745635986 c1.9118142127990723,2.0427117347717285 4.8357648849487305,5.355217933654785 6.4664306640625,7.287512302398682 c1.6868948936462402,1.932294487953186 4.948225498199463,5.631259441375732 7.309879779815674,8.115638732910156 c2.4178824424743652,2.5395870208740234 4.554615497589111,5.0239667892456055 4.8357648849487305,5.5208420753479 c0.28114914894104004,0.5520840883255005 1.6868948936462402,2.0427117347717285 3.0926403999328613,3.422922372817993 c3.2613298892974854,3.146880626678467 11.189737319946289,11.759393692016602 12.314334869384766,13.360441207885742 c0.5060685873031616,0.717709481716156 1.9118142127990723,2.429171085357666 3.1488707065582275,3.809382200241089 c1.2932859659194946,1.435418963432312 3.7111687660217285,4.251047611236572 5.398063659667969,6.293761253356934 c1.6868948936462402,2.0427117347717285 3.9360876083374023,4.637507915496826 4.948225498199463,5.741675853729248 c1.0121371746063232,1.104168176651001 2.4178824424743652,2.870837926864624 3.0926403999328613,3.9197981357574463 c0.6747579574584961,1.0489603281021118 1.8555843830108643,2.0427117347717285 2.6428020000457764,2.208336353302002 c1.4057458639144897,0.33125051856040955 4.385927200317383,-0.05520842596888542 5.566753387451172,-0.8281264901161194 zm95.87185668945312,-96.11788940429688 c2.1367335319519043,-2.0427117347717285 0.5060685873031616,-5.189591884613037 -3.2613298892974854,-6.459385395050049 c-1.3495159149169922,-0.4416674077510834 -3.8236284255981445,-1.8770865201950073 -5.398063659667969,-3.091672420501709 c-1.6306649446487427,-1.2697935104370117 -3.0926403999328613,-2.2635462284088135 -3.3737897872924805,-2.2635462284088135 c-0.22491934895515442,0 -1.4619755744934082,-0.8281264901161194 -2.755261182785034,-1.8770865201950073 c-1.2370563745498657,-1.0489603281021118 -3.4862489700317383,-2.318753957748413 -4.948225498199463,-2.870837926864624 c-1.5182054042816162,-0.49687591195106506 -3.7111687660217285,-1.7114611864089966 -4.891995429992676,-2.5947959423065186 c-2.1367335319519043,-1.6562529802322388 -5.398063659667969,-3.091672420501709 -7.084959983825684,-3.146880626678467 c-0.5060685873031616,0 -2.1929636001586914,-0.8281264901161194 -3.8236284255981445,-1.8770865201950073 c-1.8555843830108643,-1.1593769788742065 -4.8357648849487305,-2.318753957748413 -7.815945625305176,-3.0364630222320557 c-2.6990318298339844,-0.6625010371208191 -5.847902297973633,-1.8218780755996704 -6.972497940063477,-2.5947959423065186 c-1.6306649446487427,-1.104168176651001 -3.5987095832824707,-1.6562529802322388 -8.771854400634766,-2.429171085357666 c-3.654939889907837,-0.49687591195106506 -8.771854400634766,-1.6562529802322388 -11.414655685424805,-2.429171085357666 c-6.522659778594971,-2.0427117347717285 -11.864495277404785,-2.5395870208740234 -28.67721176147461,-2.5395870208740234 c-17.65616798400879,0.05520842596888542 -23.560298919677734,0.5520840883255005 -29.80181121826172,2.7052135467529297 c-2.8114917278289795,0.9385432600975037 -7.084959983825684,1.8770865201950073 -10.402519226074219,2.208336353302002 c-4.667076587677002,0.49687591195106506 -6.410200119018555,0.9937518239021301 -10.121369361877441,2.815629720687866 c-2.4741127490997314,1.1593769788742065 -5.9041314125061035,2.429171085357666 -7.703487396240234,2.76042103767395 c-1.7431244850158691,0.33125051856040955 -4.273467063903809,1.3250020742416382 -5.622983455657959,2.208336353302002 c-1.2932859659194946,0.8281264901161194 -3.8798584938049316,1.9875036478042603 -5.622983455657959,2.484379768371582 c-1.7993547916412354,0.49687591195106506 -4.217237949371338,1.7114611864089966 -5.4542951583862305,2.7052135467529297 c-1.2370563745498657,0.9937518239021301 -3.3737897872924805,2.1531286239624023 -4.77953577041626,2.5395870208740234 c-1.5182054042816162,0.3864590525627136 -3.542479991912842,1.5458362102508545 -4.77953577041626,2.7052135467529297 c-2.0242743492126465,1.8770865201950073 -4.554615497589111,3.478130578994751 -10.8523588180542,6.79063606262207 c-1.5744353532791138,0.8281264901161194 -3.3737897872924805,1.932294487953186 -3.9360876083374023,2.429171085357666 c-1.2932859659194946,1.1593769788742065 -1.3495159149169922,4.416672706604004 -0.11245967447757721,5.079174041748047 c0.5060685873031616,0.27604204416275024 42.56599044799805,0.5520840883255005 99.18940734863281,0.5520840883255005 c88.39329528808594,0.11041685193777084 98.4021987915039,0 99.18940734863281,-0.7729181051254272 z" id="svg_2" opacity="1"/>
</g></g></svg>